<?xml version="1.0" standalone="no"?>
<!DOCTYPE svg PUBLIC "-//W3C//DTD SVG 20010904//EN"
 "http://www.w3.org/TR/2001/REC-SVG-20010904/DTD/svg10.dtd">
<svg version="1.0" xmlns="http://www.w3.org/2000/svg"
 width="700.000000pt" height="700.000000pt" viewBox="0 0 700.000000 700.000000"
 preserveAspectRatio="xMidYMid meet">
<metadata>
Created by potrace 1.14, written by Peter Selinger 2001-2017
</metadata>
<g transform="translate(0.000000,700.000000) scale(0.100000,-0.100000)"
fill="#000000" stroke="none">
<path d="M3237 6994 c-1 -1 -40 -4 -87 -8 -106 -8 -159 -14 -285 -35 -115 -20
-110 -10 -76 -136 49 -182 17 -382 -86 -543 -43 -68 -125 -155 -172 -184 -20
-12 -38 -25 -41 -28 -10 -13 -116 -58 -175 -76 -63 -18 -216 -25 -290 -12
-201 34 -382 171 -477 359 -17 35 -33 65 -34 67 -2 3 -142 -95 -154 -108 -3
-3 -36 -31 -75 -62 -233 -188 -441 -411 -627 -670 l-79 -111 48 -27 c187 -107
320 -335 327 -560 10 -330 -198 -609 -515 -690 -83 -22 -250 -20 -321 3 -54
17 -50 20 -64 -63 -4 -25 -8 -47 -9 -50 -1 -3 -5 -34 -9 -70 -5 -36 -10 -74
-12 -85 -12 -62 -19 -217 -19 -415 0 -237 6 -332 31 -495 8 -55 17 -119 21
-143 4 -28 10 -41 18 -38 242 93 482 64 673 -80 167 -126 261 -308 268 -519 3
-115 -8 -186 -47 -289 -54 -145 -195 -295 -334 -357 -25 -11 -45 -23 -45 -26
0 -13 116 -177 185 -260 6 -7 15 -18 20 -25 134 -178 477 -497 683 -637 l61
-41 22 42 c115 226 341 366 592 366 111 0 191 -18 292 -68 177 -86 311 -252
361 -449 28 -110 18 -302 -20 -392 -7 -17 35 -29 164 -45 30 -3 62 -8 71 -9
40 -8 193 -18 279 -19 l95 -1 2 1028 c2 799 0 1029 -10 1032 -7 2 -43 7 -82 9
-93 7 -123 13 -230 41 -399 107 -732 388 -909 768 -46 97 -102 267 -111 336
-3 20 -9 61 -14 91 -12 69 -11 317 1 396 65 426 313 805 668 1021 199 121 437
194 657 202 l33 1 -1 1035 0 1034 -81 -2 c-44 -1 -80 -3 -81 -3z"/>
<path d="M4027 6979 c-85 -24 -136 -50 -209 -105 -129 -100 -223 -254 -260
-429 -12 -59 -18 -596 -6 -692 18 -160 60 -277 145 -405 l45 -68 -31 -38 c-37
-48 -93 -157 -121 -237 -46 -131 -49 -192 -50 -1030 -1 -434 -2 -821 -1 -860
3 -227 62 -410 187 -574 l54 -71 -29 -33 c-65 -71 -128 -183 -164 -288 -48
-145 -50 -179 -50 -889 0 -645 1 -667 21 -742 83 -306 306 -502 582 -513 140
-6 233 20 355 97 47 30 129 108 168 160 28 38 28 38 58 23 62 -33 180 -55 274
-51 178 7 322 68 459 196 101 94 191 253 222 390 10 41 20 67 26 64 34 -21
146 -39 248 -39 139 0 191 11 310 67 94 45 147 81 217 149 267 261 343 692
184 1044 l-29 64 54 58 c149 159 266 404 301 628 14 89 8 334 -10 421 -55 262
-186 494 -369 651 l-38 32 29 89 c37 113 46 171 45 307 -2 236 -84 440 -244
605 -102 104 -204 167 -334 205 -42 12 -56 21 -52 31 50 129 74 361 52 494
-20 122 -41 196 -81 285 -109 239 -293 412 -520 490 -27 9 -59 19 -70 21 -11
2 -41 8 -67 12 -129 25 -341 -9 -469 -73 -36 -19 -50 -22 -53 -13 -3 7 -12 46
-21 86 -10 40 -21 75 -26 78 -5 3 -9 12 -9 19 0 26 -84 155 -135 209 -62 64
-104 97 -173 131 -127 64 -285 80 -415 44z m263 -181 c193 -60 329 -250 341
-477 2 -42 -1 -57 -18 -75 -11 -11 -44 -52 -73 -90 -47 -63 -52 -74 -47 -109
7 -49 32 -76 77 -82 40 -4 58 8 109 75 148 194 335 292 548 285 309 -10 577
-258 648 -600 91 -441 -174 -878 -570 -941 -70 -11 -105 -12 -111 -2 -3 5 -8
30 -10 56 -15 181 -93 361 -216 496 -23 25 -23 29 5 74 39 62 77 163 93 245 2
10 5 26 8 35 3 9 8 52 11 95 7 109 -14 144 -90 152 -18 2 -64 -25 -74 -43 -5
-10 -12 -51 -16 -92 -9 -107 -30 -183 -78 -280 -53 -109 -168 -228 -268 -278
-284 -140 -604 -20 -758 285 -64 126 -73 185 -75 508 -2 352 4 405 57 515 12
25 24 47 27 50 3 3 16 21 29 40 28 42 111 110 166 135 85 40 200 49 285 23z
m583 -1637 c150 -196 174 -503 56 -718 -36 -66 -88 -137 -113 -153 -16 -10
-22 -8 -40 13 -11 13 -32 37 -46 53 -66 77 -163 145 -265 186 -74 29 -190 50
-219 38 -32 -12 -57 -50 -58 -90 -2 -49 34 -77 121 -95 321 -67 516 -412 436
-772 -19 -86 -14 -125 21 -148 57 -37 121 -10 145 62 47 144 44 358 -7 516
l-16 47 71 76 c69 74 124 156 157 233 22 50 54 151 54 167 0 10 14 14 43 15
265 5 494 127 670 356 l47 61 60 -14 c282 -65 487 -354 475 -668 -5 -124 -37
-264 -60 -259 -6 2 -51 18 -101 37 -50 19 -104 37 -120 40 -16 3 -45 8 -64 11
-67 12 -185 11 -279 -2 -51 -8 -94 -13 -95 -11 -41 95 -95 164 -169 218 -39
27 -51 31 -81 26 -51 -10 -79 -50 -73 -101 4 -25 14 -46 29 -58 95 -74 139
-156 140 -257 1 -72 -15 -126 -52 -183 -17 -25 -33 -57 -36 -72 -11 -61 60
-118 119 -96 62 24 144 186 149 294 1 37 13 44 93 57 370 59 744 -175 882
-554 53 -146 68 -232 67 -396 -2 -263 -97 -500 -275 -681 -135 -137 -300 -219
-433 -215 -117 4 -254 91 -366 231 -28 35 -50 67 -50 73 0 5 -6 14 -13 20 -11
9 -2 23 40 68 67 71 116 158 142 254 27 97 27 169 1 203 -55 70 -160 24 -160
-71 0 -16 -6 -50 -14 -75 -8 -26 -12 -47 -10 -47 2 0 -8 -21 -22 -47 -77 -140
-223 -218 -362 -191 -26 5 -56 10 -67 12 -30 5 -74 -21 -85 -50 -26 -68 11
-122 97 -141 50 -12 186 -11 238 1 29 7 33 4 77 -61 47 -68 142 -173 206 -227
51 -42 170 -103 237 -121 76 -20 201 -17 276 5 32 10 92 35 134 56 88 44 83
48 120 -68 62 -193 46 -398 -45 -578 -144 -286 -440 -413 -721 -309 l-57 21
-6 58 c-16 142 -86 312 -171 418 -85 106 -210 197 -323 236 l-35 12 2 90 c2
83 -8 157 -29 209 -66 169 -111 214 -182 184 -28 -12 -58 -54 -58 -83 0 -8 16
-45 35 -83 69 -136 70 -291 5 -417 -40 -76 -80 -120 -148 -158 -72 -41 -93
-86 -66 -140 29 -57 82 -62 162 -17 69 40 139 107 187 182 21 31 39 57 41 57
1 0 23 -9 49 -20 60 -26 130 -74 179 -124 46 -47 114 -150 123 -186 3 -14 9
-29 13 -35 19 -27 40 -140 41 -220 3 -334 -218 -609 -506 -628 -88 -6 -245 29
-245 54 0 4 7 36 15 71 18 78 21 164 7 200 -32 79 -156 57 -167 -28 -2 -16 -6
-54 -10 -84 -37 -336 -350 -534 -631 -400 -70 34 -173 141 -210 220 -58 121
-58 120 -59 795 0 341 3 652 8 690 29 264 206 491 436 559 95 28 101 26 145
-59 62 -118 192 -235 277 -250 29 -5 41 -2 66 19 60 51 46 114 -37 165 -198
122 -256 367 -139 589 24 47 29 67 24 91 -14 67 -97 93 -147 46 -56 -52 -118
-228 -118 -337 0 -39 -4 -60 -12 -62 -7 -2 -44 -10 -83 -20 -38 -9 -101 -32
-140 -50 -66 -33 -71 -34 -89 -18 -32 29 -114 160 -136 219 -50 135 -50 123
-46 1098 3 824 5 916 20 970 18 62 84 205 111 239 14 19 15 18 53 -6 94 -63
207 -108 307 -123 184 -28 400 33 550 155 33 27 62 49 65 49 3 1 23 -21 43
-48z"/>
</g>
</svg>
